<svg width="120" height="120" viewBox="0 0 120 120" fill="none" xmlns="http://www.w3.org/2000/svg">
<g clip-path="url(#clip0_7209_11403)">
<rect width="120" height="120" fill="#0B2972"/>
<path d="M10.9697 43.8094L11.1497 76.0594L33.0947 75.9394C35.4047 75.6994 37.9997 75.1594 39.8147 73.7344C40.8047 72.9544 41.8097 71.9344 42.4547 70.6144V75.9994L58.5497 75.8794C71.5697 75.0094 75.9797 66.0244 75.9047 60.1444C75.8297 54.0094 71.7647 44.5744 57.1097 43.8844L42.4397 43.8244V63.4444C41.5697 61.5244 39.7097 59.6644 35.7047 58.5544C38.7497 56.8144 40.1147 54.1144 39.7847 51.2794C39.4847 48.5794 38.3297 44.9044 31.2797 43.9444L10.9697 43.8094ZM27.1247 48.0694C31.1597 48.7894 31.9697 51.0844 31.9847 52.8094C31.9997 54.6844 30.9347 57.1444 27.1247 57.3394L18.4847 57.3094V48.1294L27.1247 48.0694ZM50.2547 48.0994L54.9647 48.1594C64.2797 48.0394 67.2797 54.6394 67.2497 59.9644C67.2197 64.3894 65.4497 71.7394 54.9647 71.7094L50.1347 71.6494L50.2547 48.0994ZM29.6597 61.5694C33.7697 61.9894 35.3147 64.3894 35.4197 66.5794C35.5097 68.5144 34.5947 71.3644 29.7797 71.7394H18.5147V61.6894L29.6597 61.5694Z" fill="white"/>
<path d="M89.9747 42.8644C79.4597 42.8644 70.9247 50.5444 70.9247 59.9944C70.9247 69.4444 79.4447 77.1244 89.9747 77.1244C100.505 77.1244 109.025 69.4594 109.025 59.9944C109.025 50.5294 100.505 42.8644 89.9747 42.8644ZM90.0797 46.7344C96.1547 46.7344 101.075 52.6294 101.075 59.8894C101.075 67.1494 96.1547 73.0444 90.0797 73.0444C84.0047 73.0444 79.0847 67.1494 79.0847 59.8894C79.0847 52.6294 84.0047 46.7344 90.0797 46.7344Z" fill="#FFB20C"/>
</g>
<defs>
<clipPath id="clip0_7209_11403">
<rect width="120" height="120" fill="white"/>
</clipPath>
</defs>
</svg>
