<svg width="120" height="120" viewBox="0 0 120 120" fill="none" xmlns="http://www.w3.org/2000/svg">
<rect width="120" height="120" fill="#1CB14D"/>
<path d="M58.9007 37.153C58.9007 37.153 58.5245 39.0704 58.4882 39.0745H58.6166C58.2314 39.1145 57.8481 39.1722 57.4682 39.2474L57.5725 39.2147C57.5366 39.2216 56.6043 37.5043 56.6043 37.5043L54.626 38.1243C54.626 38.1243 54.8405 40.0666 54.8071 40.0814L54.9342 40.0416C54.5734 40.1972 54.2201 40.3696 53.8755 40.5582L53.9752 40.4888C53.943 40.5061 52.5399 39.1463 52.5399 39.1463L50.8375 40.3294C50.8375 40.3294 51.6229 42.1187 51.5955 42.1428L51.709 42.0639C51.4078 42.3233 51.119 42.5968 50.8435 42.8836L50.9236 42.7804C50.8981 42.8065 49.1524 41.9286 49.1524 41.9286L47.8817 43.5667C47.8817 43.5667 49.1664 45.0391 49.1474 45.0703L49.2339 44.9588C49.0224 45.299 48.8273 45.6491 48.6492 46.0078L48.6969 45.8797C48.6803 45.9123 46.752 45.5965 46.752 45.5965L46.0293 47.5397C46.0293 47.5397 47.6955 48.5605 47.6867 48.596L47.7365 48.4621C47.6361 48.8517 47.5543 49.2459 47.4916 49.6433L47.4989 49.5031C47.4928 49.5391 45.5582 49.8144 45.5582 49.8144L45.4498 51.8848C45.4498 51.8848 47.3449 52.3608 47.3471 52.3972L47.349 52.3625C47.375 52.7894 47.4228 53.2147 47.492 53.6368L45.8685 54.3635L46.309 56.198C48.0682 61.9433 53.6204 65.8995 59.9372 65.9087C66.254 65.8995 71.8062 61.9433 73.5654 56.198L74.0059 54.3635L72.3732 53.6327C72.4473 53.1764 72.4963 52.7164 72.5198 52.2548L72.5273 52.3972C72.5295 52.3608 74.4247 51.8848 74.4247 51.8848L74.3162 49.8144C74.3162 49.8144 72.3817 49.5391 72.3756 49.5031L72.3771 49.5315C72.317 49.1863 72.2425 48.8436 72.1538 48.5046L72.1878 48.596C72.179 48.5605 73.8451 47.5397 73.8451 47.5397L73.1224 45.5965C73.1224 45.5965 71.1941 45.9123 71.1775 45.8797C71.0214 45.5803 70.8533 45.2873 70.6737 45.0013L70.7271 45.0703C70.7082 45.0391 71.9928 43.5667 71.9928 43.5667L70.722 41.9286C70.722 41.9286 68.9764 42.8065 68.9509 42.7804L68.9603 42.7925C68.7216 42.5514 68.4733 42.3201 68.216 42.0991L68.2789 42.1428C68.2515 42.1187 69.037 40.3294 69.037 40.3294L67.3346 39.1463C67.3346 39.1463 65.9314 40.5061 65.8992 40.4888L65.922 40.5047C65.6225 40.3449 65.3167 40.1971 65.0053 40.062L65.0674 40.0814C65.034 40.0666 65.2485 38.1243 65.2485 38.1243L63.2701 37.5043C63.2701 37.5043 62.3378 39.2216 62.3019 39.2147L62.3405 39.2268C62.0068 39.1625 61.6706 39.1117 61.3327 39.0745H61.3862C61.3499 39.0704 60.9739 37.153 60.9739 37.153H58.9007V37.153Z" fill="#FDC14F"/>
<path fill-rule="evenodd" clip-rule="evenodd" d="M56.8925 46.2978C56.8716 49.4555 58.9974 51.3962 59.9011 51.918C60.8047 51.3962 62.9305 49.4555 62.9096 46.2978C62.8887 43.1401 60.8047 41.1994 59.9011 40.6776C58.9974 41.1994 56.9134 43.1401 56.8925 46.2978V46.2978Z" fill="#1CB14D"/>
<path fill-rule="evenodd" clip-rule="evenodd" d="M47.2524 56.5483C47.6278 57.515 48.1103 58.428 48.6856 59.2728C53.958 56.0726 61.5918 61.2966 70.7114 59.9304C71.3629 59.0865 71.9177 58.1643 72.3587 57.1796C59.2755 61.6932 52.6001 54.4637 47.2524 56.5483V56.5483Z" fill="#1CB14D"/>
<path fill-rule="evenodd" clip-rule="evenodd" d="M49.7184 60.6042C50.2974 61.2625 50.939 61.8641 51.634 62.4001C59.71 58.0719 63.0393 61.7307 67.3813 63.0113C68.196 62.478 68.9498 61.8597 69.6303 61.1689C62.7165 62.1692 57.5058 57.0169 49.7184 60.6042Z" fill="#1CB14D"/>
<path d="M58.9236 61.4069C56.8862 61.4069 54.849 62.0817 53.175 63.4304C55.1666 64.5726 57.4751 65.2257 59.9372 65.2257C61.8814 65.2257 63.7293 64.8177 65.4015 64.084C63.611 62.2993 61.2674 61.4069 58.9236 61.4069V61.4069Z" fill="#1CB14D"/>
<path d="M60.9244 57.047H58.95V65.4668H60.9244V57.047Z" fill="#FDC14F"/>
<path fill-rule="evenodd" clip-rule="evenodd" d="M52.0513 48.0651C51.9799 48.0662 51.9143 48.0695 51.8555 48.0747C51.5634 48.9737 51.349 51.624 53.3004 54.1066C53.4812 54.3366 53.6682 54.5484 53.8592 54.7433C55.1311 56.1534 57.0903 57.1063 59.3209 57.2558V65.2112C59.5252 65.2203 59.7306 65.2257 59.9372 65.2257C60.1438 65.2257 60.3491 65.2203 60.5535 65.2112V57.2556C62.7803 57.1064 64.7364 56.1566 66.0085 54.7504C66.0095 54.7494 66.0106 54.7483 66.0116 54.7472C66.2039 54.5512 66.392 54.3381 66.574 54.1066C68.5254 51.624 68.3109 48.9737 68.0189 48.0747C67.96 48.0695 67.8946 48.0662 67.8231 48.0651C66.751 48.0488 64.3227 48.5334 62.4665 50.8395C60.8867 52.8022 60.7225 54.8995 60.8688 56.1243C60.6347 56.3708 60.304 56.5247 59.9372 56.5247C59.5703 56.5247 59.2396 56.3708 59.0055 56.1243C59.1519 54.8995 58.9876 52.8022 57.4078 50.8395C55.5516 48.5334 53.1235 48.0488 52.0513 48.0651H52.0513Z" fill="#1CB14D"/>
<path d="M11.1 72.2032H14.5917V80.7205H20.0411V83.503H11.1V72.2032Z" fill="#FDC14F"/>
<path d="M28.5969 81.6377H24.6196L24.0724 83.503H20.5036L24.7507 72.2032H28.5584L32.8054 83.503H29.1519L28.5969 81.6377ZM27.8646 79.1943L26.616 75.1323L25.375 79.1943H27.8646Z" fill="#FDC14F"/>
<path d="M33.9385 72.2032H37.1989L41.4537 78.4544V72.2032H44.745V83.503H41.4537L37.222 77.2982V83.503H33.9385V72.2032V72.2032Z" fill="#FDC14F"/>
<path d="M47.1267 72.2032H52.3141C53.3367 72.2032 54.1615 72.342 54.7884 72.6195C55.4204 72.897 55.942 73.2952 56.3531 73.8142C56.7642 74.3332 57.0622 74.937 57.2472 75.6256C57.4322 76.3141 57.5247 77.0438 57.5247 77.8146C57.5247 79.0222 57.3859 79.96 57.1084 80.628C56.8361 81.2909 56.4558 81.8484 55.9677 82.3006C55.4795 82.7477 54.9554 83.0457 54.3953 83.1947C53.6296 83.4003 52.9359 83.503 52.3141 83.503H47.1267V72.2032V72.2032ZM50.6184 74.7623V80.9363H51.474C52.2036 80.9363 52.7226 80.8566 53.031 80.6974C53.3393 80.5329 53.5808 80.2503 53.7555 79.8495C53.9302 79.4435 54.0176 78.7884 54.0176 77.884C54.0176 76.6867 53.8223 75.8671 53.4318 75.4252C53.0412 74.9832 52.3938 74.7623 51.4894 74.7623H50.6184V74.7623Z" fill="#FDC14F"/>
<path d="M59.3591 72.2032H65.8954C66.9848 72.2032 67.8198 72.473 68.4005 73.0126C68.9863 73.5521 69.2792 74.2201 69.2792 75.0166C69.2792 75.6846 69.0711 76.2576 68.6549 76.7355C68.3774 77.0541 67.9714 77.3059 67.437 77.4909C68.2489 77.6861 68.845 78.0227 69.2252 78.5006C69.6106 78.9734 69.8033 79.5694 69.8033 80.2888C69.8033 80.8746 69.6672 81.4013 69.3948 81.869C69.1225 82.3366 68.7499 82.7066 68.2772 82.9789C67.9843 83.1485 67.5424 83.2718 66.9514 83.3489C66.1652 83.4516 65.6436 83.503 65.3867 83.503H59.3591V72.2032V72.2032ZM62.8816 76.6353H64.4001C64.9448 76.6353 65.3225 76.5428 65.5332 76.3578C65.749 76.1677 65.8569 75.8953 65.8569 75.5408C65.8569 75.2119 65.749 74.955 65.5332 74.77C65.3225 74.585 64.9525 74.4925 64.4232 74.4925H62.8816V76.6353ZM62.8816 81.075H64.6622C65.2634 81.075 65.6873 80.9697 65.934 80.759C66.1806 80.5432 66.304 80.2554 66.304 79.8957C66.304 79.5617 66.1806 79.2945 65.934 79.0941C65.6925 78.8886 65.266 78.7858 64.6545 78.7858H62.8816V81.075V81.075Z" fill="#FDC14F"/>
<path d="M78.2975 81.6377H74.3202L73.7729 83.503H70.2042L74.4512 72.2032H78.2589L82.506 83.503H78.8524L78.2975 81.6377ZM77.5652 79.1943L76.3165 75.1323L75.0756 79.1943H77.5652V79.1943Z" fill="#FDC14F"/>
<path d="M83.639 72.2032H86.8995L91.1542 78.4544V72.2032H94.4455V83.503H91.1542L86.9226 77.2982V83.503H83.639V72.2032Z" fill="#FDC14F"/>
<path d="M96.7964 72.2032H100.288V76.4734L103.949 72.2032H108.59L104.474 76.4657L108.775 83.503H104.474L102.092 78.8552L100.288 80.7436V83.503H96.7964V72.2032V72.2032Z" fill="#FDC14F"/>
</svg>
